<svg width="182" height="61" viewBox="0 0 182 61" fill="none" xmlns="http://www.w3.org/2000/svg">
<path d="M77.4497 31.1115C77.4497 39.5323 70.7652 45.7374 62.5618 45.7374C54.3584 45.7374 47.6739 39.5323 47.6739 31.1115C47.6739 22.6313 54.3584 16.4855 62.5618 16.4855C70.7652 16.4855 77.4497 22.6313 77.4497 31.1115ZM70.9325 31.1115C70.9325 25.8493 67.0583 22.2489 62.5618 22.2489C58.0653 22.2489 54.1911 25.8493 54.1911 31.1115C54.1911 36.3209 58.0653 39.9741 62.5618 39.9741C67.0583 39.9741 70.9325 36.3143 70.9325 31.1115Z" fill="#E3E4E6" fill-opacity="0.55"/>
<path d="M109.569 31.1115C109.569 39.5323 102.885 45.7374 94.6813 45.7374C86.4779 45.7374 79.7934 39.5323 79.7934 31.1115C79.7934 22.6379 86.4779 16.4855 94.6813 16.4855C102.885 16.4855 109.569 22.6313 109.569 31.1115ZM103.052 31.1115C103.052 25.8493 99.1778 22.2489 94.6813 22.2489C90.1848 22.2489 86.3106 25.8493 86.3106 31.1115C86.3106 36.3209 90.1848 39.9741 94.6813 39.9741C99.1778 39.9741 103.052 36.3143 103.052 31.1115Z" fill="#E3E4E6" fill-opacity="0.55"/>
<path d="M140.348 17.3692V43.6273C140.348 54.4286 133.884 58.8401 126.243 58.8401C119.05 58.8401 114.721 54.0989 113.088 50.2215L118.762 47.8937C119.773 50.2742 122.249 53.0834 126.236 53.0834C131.128 53.0834 134.159 50.1094 134.159 44.5109V42.4073H133.931C132.473 44.1812 129.662 45.7308 126.116 45.7308C118.695 45.7308 111.897 39.3608 111.897 31.1642C111.897 22.9083 118.695 16.4855 126.116 16.4855C129.656 16.4855 132.466 18.0352 133.931 19.7563H134.159V17.3758H140.348V17.3692ZM134.621 31.1642C134.621 26.0142 131.134 22.2489 126.698 22.2489C122.202 22.2489 118.435 26.0142 118.435 31.1642C118.435 36.2615 122.202 39.9741 126.698 39.9741C131.134 39.9741 134.621 36.2615 134.621 31.1642Z" fill="#E3E4E6" fill-opacity="0.55"/>
<path d="M150.55 1.97821V44.8405H144.193V1.97821H150.55Z" fill="#E3E4E6" fill-opacity="0.55"/>
<path d="M175.322 35.9252L180.381 39.2487C178.748 41.6292 174.814 45.7308 168.016 45.7308C159.585 45.7308 153.288 39.3081 153.288 31.1049C153.288 22.4071 159.638 16.4789 167.286 16.4789C174.988 16.4789 178.755 22.5192 179.986 25.7833L180.662 27.4451L160.823 35.5428C162.341 38.4772 164.703 39.9741 168.016 39.9741C171.334 39.9741 173.636 38.3651 175.322 35.9252ZM159.752 30.6631L173.014 25.236C172.285 23.4094 170.09 22.1368 167.507 22.1368C164.195 22.1368 159.585 25.0184 159.752 30.6631Z" fill="#E3E4E6" fill-opacity="0.55"/>
<path d="M23.6151 27.3067V21.1015H44.8328C45.0403 22.183 45.1473 23.4622 45.1473 24.847C45.1473 29.5025 43.8559 35.2593 39.694 39.3609C35.6459 43.5152 30.4736 45.7309 23.6218 45.7309C10.922 45.7309 0.242855 35.5362 0.242855 23.0204C0.242855 10.5046 10.922 0.309995 23.6218 0.309995C30.6476 0.309995 35.6526 3.02681 39.413 6.56789L34.9701 10.9464C32.2735 8.45384 28.6201 6.51514 23.6151 6.51514C14.3412 6.51514 7.08793 13.8809 7.08793 23.0204C7.08793 32.16 14.3412 39.5257 23.6151 39.5257C29.6305 39.5257 33.0564 37.1452 35.2511 34.9823C37.0309 33.2282 38.2019 30.7225 38.6636 27.3001L23.6151 27.3067Z" fill="#E3E4E6" fill-opacity="0.55"/>
</svg>