<svg width="48" height="48" viewBox="0 0 48 48" fill="none" xmlns="http://www.w3.org/2000/svg">
<path d="M38 19.4512V30.85C38.0001 32.0122 37.5554 33.1303 36.7573 33.9751C35.9591 34.8199 34.8679 35.3272 33.7076 35.393L33.45 35.4H14.55C13.3878 35.4 12.2696 34.9554 11.4249 34.1572C10.5801 33.3591 10.0728 32.2679 10.007 31.1076L10 30.85V19.4512L23.5128 26.5296C23.6631 26.6083 23.8303 26.6494 24 26.6494C24.1697 26.6494 24.3369 26.6083 24.4872 26.5296L38 19.4512Z" fill="#E3E4E6" fill-opacity="0.55"/>
<path d="M14.551 13H33.451C34.5788 12.9999 35.6665 13.4186 36.5031 14.175C37.3397 14.9314 37.8655 15.9715 37.9786 17.0936L24.001 24.4156L10.0234 17.0936C10.132 16.016 10.6213 15.0125 11.4035 14.2634C12.1857 13.5144 13.2094 13.0689 14.2906 13.007L14.551 13H33.451H14.551Z" fill="#E3E4E6" fill-opacity="0.55"/>
</svg>