<svg width="101" height="53" viewBox="0 0 101 53" fill="none" xmlns="http://www.w3.org/2000/svg">
<path d="M88.9584 0V20.7486H88.8259C86.1597 17.7278 82.8284 16.678 78.9632 16.678C71.0457 16.678 65.0816 21.9835 62.988 28.998C60.6006 21.269 54.4433 16.5332 45.3132 16.5332C37.8986 16.5332 32.0435 19.8138 28.988 25.1596V18.5154H13.662V11.3016H30.387V0H0V50.7H13.662V29.3877H27.2792C26.8733 30.9534 26.6566 32.6295 26.6566 34.3983C26.6566 44.9742 34.8529 52.3948 45.3132 52.3948C54.1093 52.3948 59.906 48.3243 62.9721 40.9029H51.2644C49.6806 43.1323 48.4793 43.7945 45.3132 43.7945C41.6418 43.7945 38.4765 40.6371 38.4765 36.8942H62.3162C63.3501 45.2945 69.9883 52.5389 79.0981 52.5389C83.0277 52.5389 86.6255 50.6336 88.8259 47.4164H88.9584V50.6985H101.002V0H88.9584ZM38.8567 29.5393C39.6164 26.3191 42.1501 24.2144 45.3132 24.2144C48.7951 24.2144 51.2 26.2542 51.8324 29.5393C52.0991 29.5393 38.8567 29.5393 38.8567 29.5393ZM81.6499 42.98C77.2105 42.98 74.4519 38.9027 74.4519 34.6454C74.4519 30.0948 76.8515 25.7188 81.6499 25.7188C86.6255 25.7188 88.6077 30.0948 88.6077 34.6454C88.607 38.9609 86.5066 42.98 81.6499 42.98Z" fill="#E3E4E6" fill-opacity="0.55"/>
</svg>