<svg width="195" height="61" viewBox="0 0 195 61" fill="none" xmlns="http://www.w3.org/2000/svg">
<g clip-path="url(#clip0_1_14244)">
<path d="M55.9003 42.996C55.5944 42.2566 55.3076 41.4793 55.0017 40.8158L53.587 37.6497L53.5297 37.5928C49.3238 28.4929 44.8312 19.2412 40.0709 10.1413L39.8797 9.76209C39.4018 8.87105 38.9238 7.88522 38.4268 6.97523C37.815 5.8946 37.2224 4.73815 36.2474 3.63857C35.297 2.48805 34.1009 1.5611 32.7454 0.924605C31.39 0.288113 29.9089 -0.0420465 28.4092 -0.0420465C26.9094 -0.0420465 25.4284 0.288113 24.0729 0.924605C22.7174 1.5611 21.5213 2.48805 20.571 3.63857C19.6724 4.73815 19.0033 5.8946 18.3915 6.97523C17.9136 7.96106 17.4357 8.92793 16.9386 9.81897L16.7474 10.1981C12.0636 19.2981 7.49452 28.5497 3.28865 37.6497L3.17394 37.7635C2.75336 38.7493 2.2563 39.773 1.77836 40.8726C1.47248 41.5362 1.1666 42.2566 0.860716 43.0528C0.0348983 45.1378 -0.228811 47.4003 0.0955769 49.6171C0.419965 51.834 1.32125 53.9287 2.71062 55.695C4.09998 57.4612 5.92947 58.838 8.01877 59.6896C10.1081 60.5411 12.3851 60.8382 14.6254 60.5513C16.7732 60.2709 18.8413 59.5615 20.7048 58.4659C23.1901 57.082 25.5798 55.0724 28.2562 52.1718C30.9327 55.0724 33.3797 57.082 35.8077 58.4849C38.1425 59.8439 40.7866 60.594 43.4929 60.6651C46.627 60.678 49.6599 59.566 52.0318 57.5345C54.4036 55.503 55.9542 52.6891 56.3973 49.6124C56.9094 47.4014 56.7361 45.0887 55.9003 42.977V42.996ZM28.4474 46.143C25.1592 41.9722 23.018 38.1426 22.2915 34.8629C21.9906 33.6475 21.9257 32.3864 22.1004 31.147C22.2342 30.1802 22.5974 29.327 23.0945 28.6066C24.2415 26.9573 26.2489 25.9335 28.4474 25.9335C29.4915 25.9019 30.5271 26.1278 31.4614 26.5911C32.3957 27.0543 33.1994 27.7404 33.8003 28.5877C34.2974 29.346 34.6606 30.1802 34.7753 31.147C34.9665 32.2466 34.89 33.5168 34.5841 34.8629C33.8577 38.0858 31.7165 41.9533 28.4474 46.143ZM52.8032 48.9489C52.586 50.5109 51.9598 51.9893 50.9871 53.2366C50.0144 54.484 48.729 55.4568 47.2591 56.0582C45.8062 56.6649 44.2003 56.8355 42.6327 56.6649C41.1032 56.4753 39.5738 55.9824 38.0062 55.0724C35.4033 53.477 33.0629 51.4949 31.0665 49.1953C35.0812 44.2662 37.5091 39.7731 38.4268 35.7729C38.8665 33.877 38.9238 32.1708 38.7327 30.5972C38.4939 29.1058 37.9331 27.683 37.0886 26.4264C36.1243 25.0638 34.8371 23.957 33.3404 23.2033C31.8437 22.4496 30.1831 22.0721 28.5048 22.1039C24.968 22.1039 21.8136 23.7343 19.9018 26.4075C19.0412 27.6609 18.485 29.095 18.2768 30.5972C18.0283 32.1897 18.0857 33.9529 18.5827 35.7729C19.5004 39.7731 21.9857 44.323 25.943 49.2332C23.9805 51.5768 21.6346 53.5763 19.0033 55.1482C17.4165 56.0582 15.9063 56.5322 14.3769 56.7217C11.9984 57.0239 9.59583 56.3828 7.69136 54.938C5.78688 53.4931 4.53445 51.3613 4.20629 49.0057C4.01512 47.4891 4.14894 45.9724 4.7607 44.2662C4.95188 43.6595 5.23864 43.0528 5.54453 42.3324C5.96511 41.3466 6.46217 40.3228 6.94011 39.2991L7.01658 39.1664C11.146 30.1233 15.6577 20.8906 20.3415 11.8475L20.5327 11.4683C21.0107 10.5583 21.4886 9.59147 21.9857 8.68147C22.4827 7.7146 23.018 6.78564 23.7062 6.02731C24.302 5.3221 25.0463 4.75497 25.887 4.36584C26.7276 3.97671 27.644 3.77505 28.5717 3.77505C29.4994 3.77505 30.4158 3.97671 31.2564 4.36584C32.097 4.75497 32.8414 5.3221 33.4371 6.02731C34.1062 6.78564 34.6606 7.7146 35.1577 8.68147C35.6356 9.59147 36.1136 10.5773 36.6106 11.4683L36.8018 11.8475C41.4665 20.8906 45.9782 30.1233 50.1841 39.1664L50.2415 39.2233C50.7385 40.2091 51.1591 41.3087 51.637 42.2566C51.9429 42.996 52.2488 43.5837 52.44 44.2093C52.8032 45.9155 52.9944 47.4322 52.8032 48.9489ZM79.4149 45.7259C77.9743 45.7469 76.5475 45.4458 75.2402 44.8452C73.933 44.2446 72.7788 43.3599 71.8635 42.2566C69.8065 39.9057 68.7148 36.8745 68.8046 33.7633C68.7732 30.5844 69.9001 27.5011 71.9782 25.0804C72.9394 23.963 74.1359 23.0682 75.4836 22.459C76.8312 21.8497 78.2971 21.5409 79.7781 21.5541C81.1717 21.5163 82.552 21.8306 83.7894 22.4673C85.0268 23.1041 86.0806 24.0424 86.8516 25.1941L87.0428 22.2177H92.6252V45.1193H87.0237L86.8325 41.7826C86.0376 43.0124 84.9388 44.0202 83.6405 44.7103C82.3423 45.4005 80.8877 45.7501 79.4149 45.7259ZM80.8678 40.266C81.9767 40.266 82.9517 39.9626 83.8693 39.4128C84.7105 38.8062 85.3987 38.0099 85.934 37.0431C86.4119 36.0762 86.6605 34.9197 86.6605 33.6306C86.735 32.5109 86.5152 31.3912 86.0226 30.381C85.53 29.3708 84.7815 28.5046 83.8502 27.8672C82.9553 27.3144 81.9221 27.0213 80.8678 27.0213C79.8135 27.0213 78.7803 27.3144 77.8855 27.8672C77.0443 28.4739 76.3561 29.2702 75.8208 30.237C75.3152 31.3033 75.0665 32.4716 75.0943 33.6495C75.0198 34.7692 75.2396 35.8889 75.7322 36.8991C76.2248 37.9093 76.9733 38.7755 77.9046 39.4128C78.8031 39.9626 79.7781 40.266 80.8678 40.266ZM102.184 16.0373C102.184 16.7008 102.069 17.3075 101.763 17.8004C101.457 18.2744 101.037 18.7104 100.482 19.0137C99.9281 19.3171 99.3354 19.4308 98.7237 19.4308C98.1119 19.4308 97.5001 19.3171 96.9457 19.0137C96.4214 18.7243 95.9804 18.3066 95.6648 17.8004C95.3688 17.2603 95.2236 16.6516 95.2443 16.0373C95.2443 15.3548 95.3781 14.7481 95.6648 14.2742C95.9707 13.7054 96.4104 13.3642 96.9457 13.0608C97.5001 12.7575 98.0928 12.6248 98.7237 12.6248C99.3322 12.6109 99.9339 12.7538 100.47 13.0396C101.006 13.3254 101.458 13.7442 101.782 14.2552C102.061 14.8079 102.199 15.4197 102.184 16.0373ZM95.684 45.0435V22.1798H101.763V45.0814H95.6648L95.684 45.0435ZM118.013 28.1706V28.2464C117.727 28.1137 117.344 28.0568 117.057 28C116.675 27.9241 116.369 27.9241 116.006 27.9241C114.305 27.9241 113.024 28.417 112.182 29.4408C111.265 30.4835 110.844 31.9433 110.844 33.8201V45.0624H104.746V22.1608H110.347L110.538 25.6302C111.15 24.4168 111.877 23.5068 112.909 22.8243C113.936 22.1612 115.145 21.83 116.369 21.8764C116.809 21.8764 117.229 21.9143 117.593 21.9902C117.784 22.0471 117.899 22.0471 118.013 22.1039V28.1706ZM120.46 45.0435V12.7765H126.54V25.0993C127.4 23.9998 128.375 23.1466 129.599 22.4831C131.536 21.5413 133.736 21.2742 135.845 21.7248C137.954 22.1753 139.848 23.3174 141.222 24.9666C143.284 27.3224 144.376 30.3612 144.281 33.4789C144.312 36.6578 143.185 39.7411 141.107 42.1618C140.146 43.2792 138.95 44.174 137.602 44.7832C136.254 45.3924 134.788 45.7013 133.307 45.688C131.914 45.7259 130.533 45.4116 129.296 44.7749C128.059 44.1381 127.005 43.1998 126.234 42.048L126.043 45.0245L120.46 45.0814V45.0435ZM132.218 40.266C133.307 40.266 134.282 39.9626 135.2 39.4128C136.041 38.8062 136.729 38.0099 137.265 37.0431C137.762 36.0762 137.991 34.9197 137.991 33.6306C137.991 32.3604 137.762 31.2039 137.265 30.237C136.763 29.3047 136.057 28.4952 135.2 27.8672C134.305 27.3144 133.272 27.0213 132.218 27.0213C131.163 27.0213 130.13 27.3144 129.235 27.8672C128.375 28.4739 127.706 29.2702 127.152 30.237C126.646 31.3033 126.397 32.4716 126.425 33.6495C126.351 34.7692 126.57 35.8889 127.063 36.8991C127.556 37.9093 128.304 38.7755 129.235 39.4128C130.134 39.9626 131.109 40.266 132.218 40.266ZM146.575 45.0624V22.1608H152.176L152.368 25.1373C153.072 23.9963 154.07 23.0626 155.26 22.4326C156.45 21.8027 157.788 21.4994 159.135 21.5541C160.676 21.5277 162.191 21.9525 163.49 22.7753C164.789 23.598 165.814 24.7823 166.438 26.18C167.107 27.6208 167.471 29.4029 167.471 31.3935V45.1193H161.372V32.1897C161.372 30.5972 161.009 29.346 160.282 28.417C159.556 27.507 158.562 27.0141 157.3 27.0141C156.382 27.0141 155.579 27.2037 154.872 27.6208C154.203 28.0568 153.649 28.6066 153.228 29.3839C152.803 30.1696 152.592 31.0519 152.616 31.9433V45.0624H146.575ZM170.51 45.0624V12.7575H176.609V25.0804C177.435 23.9747 178.509 23.0751 179.747 22.4531C180.985 21.8312 182.352 21.5039 183.74 21.4973C185.18 21.4764 186.607 21.7774 187.914 22.378C189.222 22.9786 190.376 23.8633 191.291 24.9666C193.338 27.3222 194.422 30.3518 194.331 33.4599C194.364 36.6391 193.237 39.723 191.157 42.1428C190.196 43.2602 188.999 44.155 187.652 44.7642C186.304 45.3735 184.838 45.6823 183.357 45.6691C181.964 45.7069 180.583 45.3927 179.346 44.7559C178.109 44.1192 177.055 43.1808 176.284 42.0291L176.112 45.0055L170.51 45.0624ZM182.325 40.266C183.434 40.266 184.409 39.9626 185.307 39.4128C186.168 38.8062 186.837 38.0099 187.391 37.0431C187.869 36.0762 188.118 34.9197 188.118 33.6306C188.192 32.5109 187.972 31.3912 187.48 30.381C186.987 29.3708 186.239 28.5046 185.307 27.8672C184.412 27.3144 183.379 27.0213 182.325 27.0213C181.271 27.0213 180.237 27.3144 179.343 27.8672C178.501 28.4739 177.813 29.2702 177.278 30.237C176.744 31.2938 176.494 32.469 176.551 33.6495C176.477 34.7692 176.697 35.8889 177.189 36.8991C177.682 37.9093 178.43 38.7755 179.362 39.4128C180.26 39.9626 181.178 40.266 182.325 40.266Z" fill="#E3E4E6" fill-opacity="0.55"/>
</g>
<defs>
<clipPath id="clip0_1_14244">
<rect width="194.464" height="60.5" fill="white" transform="scale(1.00275)"/>
</clipPath>
</defs>
</svg>