<svg width="264" height="57" viewBox="0 0 264 57" fill="none" xmlns="http://www.w3.org/2000/svg">
<g clip-path="url(#clip0_1_14246)">
<path d="M93.1892 32.4055L91.6156 36.8542H91.4845C91.2223 35.851 90.7415 34.3245 89.9547 32.4927L81.5189 11.3397H73.2579V45.0537H78.7215V24.2496C78.7215 22.9412 78.7215 21.4583 78.6778 19.6265C78.6341 18.7106 78.5467 18.0127 78.503 17.4893H78.6341C78.8964 18.7978 79.2023 19.7573 79.4209 20.3679L89.5613 44.9665H93.4077L103.461 20.1498C103.679 19.5828 103.898 18.4489 104.116 17.4893H104.248C104.116 19.9754 104.029 22.1997 103.985 23.5518V44.9228H109.799V11.2525H101.844L93.1892 32.4055ZM115.306 20.7604H120.988V44.9228H115.306V20.7604ZM118.191 10.5547C117.229 10.5547 116.442 10.9036 115.787 11.5142C115.131 12.1248 114.781 12.9098 114.781 13.8693C114.781 14.7853 115.131 15.5703 115.787 16.1809C116.442 16.7915 117.229 17.0968 118.191 17.0968C119.152 17.0968 119.983 16.7479 120.595 16.1809C121.25 15.5703 121.6 14.7853 121.6 13.8693C121.6 12.9534 121.25 12.1684 120.595 11.5142C120.026 10.9036 119.196 10.5547 118.191 10.5547ZM141.138 20.5424C140.089 20.3243 138.996 20.1934 137.947 20.1934C135.368 20.1934 133.008 20.7604 131.041 21.8944C129.074 23.0284 127.501 24.5985 126.495 26.5612C125.446 28.5674 124.922 30.879 124.922 33.5395C124.922 35.851 125.446 37.9009 126.452 39.7763C127.457 41.6081 128.856 43.091 130.735 44.0942C132.527 45.0973 134.625 45.6207 136.985 45.6207C139.695 45.6207 142.012 45.0537 143.848 44.0069L143.891 43.9633V38.7296L143.673 38.904C142.842 39.5146 141.881 40.038 140.919 40.3433C139.914 40.6922 138.996 40.8667 138.209 40.8667C135.936 40.8667 134.144 40.2125 132.877 38.7732C131.566 37.3775 130.91 35.4585 130.91 33.0597C130.91 30.5737 131.566 28.611 132.921 27.1718C134.276 25.7325 136.068 24.991 138.253 24.991C140.089 24.991 141.968 25.6016 143.673 26.8228L143.891 26.9973V21.4583L143.848 21.4146C143.105 21.1093 142.274 20.7604 141.138 20.5424ZM159.889 20.3679C158.49 20.3679 157.179 20.804 156.043 21.72C155.081 22.505 154.425 23.639 153.857 24.991H153.813V20.7604H148.131V44.9228H153.813V32.58C153.813 30.4865 154.25 28.7419 155.212 27.4771C156.174 26.1686 157.398 25.5144 158.884 25.5144C159.408 25.5144 159.933 25.6453 160.588 25.7325C161.2 25.9069 161.637 26.0814 161.943 26.2995L162.162 26.4739V20.804L162.031 20.7604C161.637 20.4987 160.851 20.3679 159.889 20.3679ZM175.362 20.2371C171.384 20.2371 168.194 21.4147 165.964 23.7262C163.692 26.0378 162.599 29.2216 162.599 33.2342C162.599 36.985 163.735 40.038 165.921 42.2624C168.106 44.4431 171.078 45.5771 174.794 45.5771C178.684 45.5771 181.787 44.3995 184.016 42.0443C186.289 39.6891 187.382 36.5489 187.382 32.6672C187.382 28.8291 186.333 25.7761 184.191 23.5518C182.137 21.3274 179.121 20.2371 175.362 20.2371ZM179.908 38.8168C178.859 40.1689 177.198 40.8231 175.143 40.8231C173.089 40.8231 171.428 40.1689 170.248 38.7296C169.068 37.3775 168.5 35.4149 168.5 32.9289C168.5 30.3556 169.111 28.393 170.248 26.9973C171.428 25.6016 173.045 24.9038 175.1 24.9038C177.11 24.9038 178.684 25.558 179.82 26.9101C180.957 28.2621 181.569 30.2248 181.569 32.798C181.481 35.4149 181 37.4648 179.908 38.8168ZM200.057 30.7918C198.265 30.0503 197.129 29.4833 196.604 29.0036C196.167 28.5674 195.949 27.9568 195.949 27.1718C195.949 26.5175 196.211 25.8633 196.867 25.4272C197.522 24.991 198.265 24.773 199.358 24.773C200.32 24.773 201.325 24.9474 202.287 25.2091C203.248 25.4708 204.122 25.8633 204.822 26.3867L205.04 26.5612V21.2402L204.909 21.1966C204.253 20.9349 203.379 20.6732 202.33 20.4551C201.281 20.2807 200.32 20.1934 199.533 20.1934C196.823 20.1934 194.594 20.8477 192.845 22.2869C191.097 23.639 190.267 25.4708 190.267 27.6079C190.267 28.7419 190.441 29.745 190.835 30.5737C191.228 31.4024 191.796 32.1874 192.583 32.8416C193.37 33.4522 194.506 34.1501 196.08 34.8043C197.391 35.3713 198.396 35.8074 199.008 36.1563C199.62 36.5053 200.014 36.8978 200.32 37.2031C200.538 37.552 200.669 37.9881 200.669 38.5551C200.669 40.1689 199.445 40.9539 196.954 40.9539C195.992 40.9539 194.987 40.7795 193.807 40.3869C192.627 39.9944 191.534 39.4274 190.616 38.7732L190.398 38.5987V44.1378L190.529 44.1814C191.359 44.5739 192.365 44.8356 193.588 45.1409C194.812 45.359 195.905 45.5334 196.867 45.5334C199.795 45.5334 202.199 44.8792 203.904 43.44C205.652 42.0443 206.57 40.2561 206.57 37.9445C206.57 36.3308 206.133 34.8915 205.171 33.8012C203.904 32.7544 202.33 31.664 200.057 30.7918ZM221.562 20.2371C217.585 20.2371 214.394 21.4147 212.165 23.7262C209.936 26.0378 208.799 29.2216 208.799 33.2342C208.799 36.985 209.936 40.038 212.121 42.2624C214.306 44.4431 217.279 45.5771 220.994 45.5771C224.884 45.5771 227.987 44.3995 230.217 42.0443C232.489 39.6891 233.582 36.5489 233.582 32.6672C233.582 28.8291 232.533 25.7761 230.391 23.5518C228.337 21.3274 225.321 20.2371 221.562 20.2371ZM226.064 38.8168C225.015 40.1689 223.354 40.8231 221.3 40.8231C219.202 40.8231 217.585 40.1689 216.405 38.7296C215.224 37.3775 214.656 35.4149 214.656 32.9289C214.656 30.3556 215.268 28.393 216.405 26.9973C217.585 25.6016 219.202 24.9038 221.256 24.9038C223.223 24.9038 224.84 25.558 225.977 26.9101C227.113 28.2621 227.725 30.2248 227.725 32.798C227.725 35.4149 227.157 37.4648 226.064 38.8168ZM263.96 25.4272V20.7604H258.234V13.6077L258.059 13.6513L252.639 15.265L252.508 15.3086V20.7604H243.941V17.7074C243.941 16.3118 244.291 15.2214 244.903 14.5236C245.515 13.8257 246.433 13.4768 247.569 13.4768C248.356 13.4768 249.186 13.6513 250.104 14.0438L250.323 14.1747V9.24622L250.191 9.2026C249.405 8.94092 248.356 8.76646 247.001 8.76646C245.296 8.76646 243.81 9.15899 242.455 9.8132C241.1 10.5547 240.095 11.5578 239.352 12.9098C238.609 14.2183 238.215 15.7012 238.215 17.4021V20.7604H234.238V25.3836H238.215V44.9228H243.941V25.4272H252.508V37.8573C252.508 42.9602 254.912 45.5334 259.72 45.5334C260.507 45.5334 261.337 45.4026 262.124 45.2718C262.954 45.0973 263.566 44.8792 263.916 44.7048L263.96 44.6612V39.9944L263.741 40.1689C263.392 40.3869 263.086 40.5614 262.561 40.6922C262.124 40.8231 261.731 40.8667 261.425 40.8667C260.288 40.8667 259.501 40.605 258.933 39.9508C258.409 39.3402 258.146 38.3371 258.146 36.8542V25.4272H263.96Z" fill="#E3E4E6" fill-opacity="0.55"/>
<path d="M0 0H26.7935V26.7357H0V0Z" fill="#E3E4E6" fill-opacity="0.55"/>
<path d="M29.5911 0H56.3846V26.7357H29.5911V0Z" fill="#E3E4E6" fill-opacity="0.55"/>
<path d="M0 29.527H26.7935V56.2626H0V29.527Z" fill="#E3E4E6" fill-opacity="0.55"/>
<path d="M29.5911 29.527H56.3846V56.2626H29.5911V29.527Z" fill="#E3E4E6" fill-opacity="0.55"/>
</g>
<defs>
<clipPath id="clip0_1_14246">
<rect width="263.607" height="56.1786" fill="white" transform="scale(1.0015)"/>
</clipPath>
</defs>
</svg>